HIERARCHY
ROOT Hips
{
	OFFSET 0.000000 0.000000 0.000000 
	CHANNELS 6 Xposition Yposition Zposition Yrotation Zrotation Xrotation 
	JOINT Lumbar
	{
		OFFSET 0.000000 0.000000 0.000000 
		CHANNELS 3 Zrotation Xrotation Yrotation
		JOINT Neck
		{
			OFFSET 0.000000 0.445665 0.000000 
			CHANNELS 3 Zrotation Xrotation Yrotation
			End Site
			{
				OFFSET 0.000000 0.227535 0.000000 
			}
		}
		JOINT RightShoulder
		{
			OFFSET 0.019635 0.377685 0.194865 
			CHANNELS 3 Zrotation Xrotation Yrotation
			JOINT RightElbow
			{
				OFFSET 0.000000 -0.243375 0.000000 
				CHANNELS 2 Zrotation Yrotation
				JOINT RightWrist
				{
					OFFSET 0.000000 -0.264825 0.000000 
					CHANNELS 2 Zrotation Xrotation
					End Site
					{
						OFFSET 0.006600 -0.176220 0.000990 
					}
				}
			}
		}
		JOINT LeftShoulder
		{
			OFFSET 0.019635 0.377685 -0.194865 
			CHANNELS 3 Zrotation Xrotation Yrotation
			JOINT LeftElbow
			{
				OFFSET 0.000000 -0.243375 0.000000 
				CHANNELS 2 Zrotation Yrotation
				JOINT LeftWrist
				{
					OFFSET 0.000000 -0.264825 0.000000 
					CHANNELS 2 Zrotation Xrotation
					End Site
					{
						OFFSET 0.006600 -0.176220 -0.000990 
					}
				}
			}
		}
	}
	JOINT RightHip
	{
		OFFSET 0.052140 -0.069960 0.075570 
		CHANNELS 3 Zrotation Xrotation Yrotation
		JOINT RightKnee
		{
			OFFSET 0.000000 -0.402270 0.000000 
			CHANNELS 1 Zrotation
			JOINT RightAnkle
			{
				OFFSET 0.000000 -0.404085 0.000000 
				CHANNELS 3 Zrotation Xrotation Yrotation
				End Site
				{
					OFFSET 0.204105 -0.089430 0.008415 
				}
			}
		}
	}
	JOINT LeftHip
	{
		OFFSET 0.052140 -0.069960 -0.075570 
		CHANNELS 3 Zrotation Xrotation Yrotation
		JOINT LeftKnee
		{
			OFFSET 0.000000 -0.402270 0.000000 
			CHANNELS 1 Zrotation
			JOINT LeftAnkle
			{
				OFFSET 0.000000 -0.404085 0.000000 
				CHANNELS 3 Zrotation Xrotation Yrotation
				End Site
				{
					OFFSET 0.204105 -0.089430 -0.008415 
				}
			}
		}
	}
}
MOTION
Frames: 32
Frame Time: 0.02
-0.20177 -0.55634 -0.33366 11.98576 -31.13971 -15.89632 31.70922 4.92533 -8.69965 -4.51707 9.82054 -2.11994 -24.67638 -9.95342 -17.32205 59.23579 81.72284 -5.6307 -3.24453 -3.46188 29.96684 -16.39511 107.17222 -77.76278 -10.48586 1.24328 96.00688 -21.13789 29.77783 -125.00031 -5.40937 -1.52262 -2.92748 64.00896 14.89888 -3.74089 -125.18251 -20.06823 -0.05851 2.77637
-0.20331 -0.56225 -0.32184 12.79543 -31.19438 -15.07783 31.14002 4.81847 -8.54686 -3.78501 9.59166 -2.11994 -23.50309 -10.63692 -17.82433 57.41321 81.56659 -5.8278 -3.05543 -1.03361 29.59691 -17.59708 106.75932 -77.82656 -10.6792 1.26285 97.542 -21.45301 30.88187 -126.08384 -5.51139 -1.50481 -2.92009 64.85411 15.14017 -4.77049 -126.20089 -20.06733 -0.11207 2.74785
-0.20469 -0.56874 -0.30929 13.56125 -31.31473 -14.22598 30.5913 4.71337 -8.31875 -2.95182 9.36431 -2.11994 -22.24013 -11.35002 -18.26463 55.68247 81.48871 -6.09949 -2.93589 1.29086 28.97426 -18.6169 106.41568 -77.9124 -10.88818 1.28028 99.21606 -21.86514 32.12503 -127.57828 -5.53218 -1.37528 -2.86253 65.83252 15.3971 -5.89274 -127.25844 -20.0734 -0.17097 2.71658
-0.20615 -0.575 -0.29706 14.33923 -31.4033 -13.39288 30.02599 4.61321 -8.12412 -2.16218 9.14 -2.11994 -21.01367 -12.05482 -18.72255 53.91909 81.37294 -6.33291 -2.77847 3.63048 28.44796 -19.7027 106.04119 -77.98587 -11.09238 1.29939 100.87012 -22.25916 33.27729 -128.88702 -5.42935 -1.10436 -2.73909 66.74608 15.65222 -6.99209 -128.29298 -20.07379 -0.22619 2.68714
-0.20761 -0.58115 -0.28485 15.15696 -31.50012 -12.54051 29.49067 4.48637 -7.93216 -1.38002 8.89948 -2.11994 -19.80233 -12.74343 -19.21749 52.11896 81.25879 -6.57861 -2.63956 6.12073 27.99371 -20.86444 105.66189 -78.06807 -11.28685 1.31476 102.34391 -22.55378 34.54854 -130.192 -5.97937 -1.61347 -2.97311 67.6787 15.88526 -8.0125 -129.35151 -20.08484 -0.2862 2.65554
-0.20901 -0.58766 -0.27243 15.87816 -31.59527 -11.72065 28.89894 4.41663 -7.71734 -0.56013 8.69253 -2.11994 -18.53809 -13.47275 -19.62122 50.41754 81.163 -6.81841 -2.48295 8.26323 27.33162 -21.82257 105.31049 -78.13823 -11.50457 1.3378 104.21749 -23.0651 35.60378 -131.60144 -5.18154 -0.50979 -2.47158 68.60109 16.16736 -9.21643 -130.36794 -20.07517 -0.33801 2.62749
-0.2103 -0.59499 -0.25958 16.35117 -31.67006 -11.01406 28.13566 4.50205 -7.45256 0.34925 8.5863 -2.11994 -17.164 -14.2822 -19.81412 48.95395 81.09828 -7.02892 -2.2448 9.51135 26.15877 -22.26582 105.01282 -78.16425 -11.79119 1.38152 107.25871 -24.26787 36.03288 -133.20588 -0.41124 5.34962 0.23022 69.4837 16.58775 -10.92942 -131.26603 -20.00853 -0.36195 2.6121
-0.21152 -0.60267 -0.24653 16.72607 -31.74069 -10.33896 27.31708 4.64555 -7.16821 1.29072 8.51201 -2.11994 -15.73733 -15.13574 -19.91262 47.58832 81.05062 -7.23106 -1.99033 10.40294 24.78648 -22.50923 104.74288 -78.17858 -12.0992 1.43335 110.6795 -25.66389 36.23869 -134.89867 5.66337 12.768 3.63871 70.34679 17.05572 -12.81864 -132.11843 -19.92045 -0.37815 2.59999
-0.21274 -0.61019 -0.23358 17.14021 -31.81319 -9.64055 26.53058 4.76414 -6.89645 2.21102 8.41831 -2.11994 -14.3265 -15.98361 -20.04052 46.18561 80.99649 -7.43434 -1.75449 11.4308 23.50505 -22.84163 104.46381 -78.20188 -12.39186 1.48221 113.86448 -26.89456 36.54364 -136.54806 10.962 19.25455 6.60191 71.20622 17.4977 -14.6117 -132.98712 -19.84089 -0.40054 2.58489
-0.21409 -0.61771 -0.22056 17.57619 -31.88867 -8.98009 25.71459 4.87656 -6.60702 3.16385 8.34697 -2.11994 -12.9481 -16.76952 -20.22864 44.75514 80.93928 -7.65064 -1.47346 12.56793 22.21224 -23.17556 104.16986 -78.21026 -12.70865 1.52785 117.32466 -28.45486 36.86347 -138.23084 17.03225 26.68212 10.08222 72.12666 17.95894 -16.47854 -133.87768 -19.7667 -0.41205 2.57589
-0.21514 -0.62532 -0.20766 17.94308 -31.95537 -8.24701 24.94771 5.01553 -6.35002 4.05375 8.23451 -2.11994 -11.48879 -17.69765 -20.26279 43.40404 80.89186 -7.83779 -1.282 13.38916 20.901 -23.46111 103.91587 -78.24696 -12.98028 1.58231 120.29597 -29.37455 37.0973 -139.85302 21.81002 32.52575 12.66358 72.90932 18.39077 -18.22893 -134.70933 -19.67617 -0.44406 2.55516
-0.21544 -0.63311 -0.19511 18.15109 -32.00415 -7.31859 24.32061 5.21439 -6.19374 4.77299 8.01817 -2.11994 -9.83773 -18.98114 -19.95529 42.2525 80.86453 -7.9385 -1.3397 13.46649 19.57239 -23.66258 103.73708 -78.36377 -13.12069 1.65801 121.85828 -28.46607 37.14861 -141.34152 22.64628 33.54909 12.49332 73.35268 18.73293 -19.64283 -135.40543 -19.54563 -0.53655 2.50003
-0.21542 -0.64098 -0.1827 18.29225 -32.04261 -6.31349 23.74653 5.43778 -6.06993 5.4246 7.75571 -2.11994 -8.10446 -20.41122 -19.48542 41.1765 80.84663 -8.01123 -1.48798 13.23063 18.23609 -23.82259 103.60242 -78.51082 -13.21556 1.74277 122.90854 -26.90839 37.12025 -142.75374 22.14598 32.93569 11.41056 73.65064 19.04305 -20.92734 -136.04002 -19.39955 -0.64948 2.43327
-0.21551 -0.64882 -0.17025 18.45834 -32.08235 -5.33565 23.15412 5.64943 -5.92749 6.10023 7.50332 -2.11994 -6.3964 -21.79119 -19.05033 40.06215 80.82584 -8.10177 -1.59608 13.11215 16.91487 -24.00266 103.46591 -78.6429 -13.33141 1.82378 124.17038 -25.65477 37.12749 -144.16237 22.29265 33.11427 10.81001 73.99056 19.36587 -22.25261 -136.69295 -19.26038 -0.75179 2.3726
-0.21578 -0.65664 -0.1577 18.64171 -32.13764 -4.39221 22.5352 5.86572 -5.80082 6.80789 7.29944 -2.11994 -4.73591 -23.10223 -18.7756 38.96686 80.7997 -8.1709 -1.70023 13.08807 15.53837 -24.17236 103.25385 -78.77451 -13.44478 1.90245 125.53466 -24.36816 37.1298 -145.73522 22.31934 33.14588 9.95387 74.43148 19.69878 -23.66178 -137.38753 -19.12029 -0.85969 2.30851
-0.21558 -0.66452 -0.14538 18.77733 -32.15656 -3.3569 21.9851 6.07726 -5.6491 7.42921 6.98137 -2.11994 -2.9598 -24.59207 -18.13076 37.85027 80.78684 -8.27763 -1.83337 12.79571 14.27689 -24.35411 103.20889 -78.92102 -13.55478 1.98938 126.55907 -22.99568 37.1261 -146.9475 22.25967 33.07227 9.39818 74.62804 20.00171 -24.86123 -137.97802 -18.97971 -0.96062 2.24889
-0.21419 -0.67261 -0.13362 18.77364 -32.09117 -2.1004 21.61004 6.27067 -5.42301 7.85537 6.37449 -2.11994 -0.86341 -26.5302 -16.49329 36.63989 80.80794 -8.49919 -2.03313 11.8594 13.34589 -24.60037 103.61768 -79.04466 -13.64411 2.08528 126.76706 -21.52424 37.12824 -147.17438 22.29739 33.11984 9.94344 74.18396 20.23589 -25.52889 -138.32435 -18.833 -1.03957 2.20308
-0.21234 -0.68074 -0.12209 18.72918 -31.98724 -0.75163 21.30309 6.4579 -5.17084 8.19213 5.65148 -2.11994 1.34357 -28.64392 -14.49128 35.4074 80.8426 -8.75897 -2.25775 10.66353 12.53106 -24.85737 104.19234 -79.1926 -13.73539 2.19118 126.64919 -19.99082 37.12765 -147.04196 22.28593 33.10786 10.81013 73.50035 20.43979 -25.98644 -138.56282 -18.68801 -1.1104 2.16242
-0.21068 -0.6888 -0.11048 18.7194 -31.89175 0.56442 20.96652 6.6471 -4.92811 8.55169 4.97124 -2.11994 3.48415 -30.6844 -12.66357 34.19618 80.87056 -8.99842 -2.46485 9.57304 11.6554 -25.09651 104.68893 -79.36697 -13.84081 2.30026 126.68086 -18.49944 37.12751 -147.07923 22.28477 33.10813 11.49444 72.92617 20.65303 -26.52858 -138.83258 -18.54798 -1.18352 2.12027
-0.2091 -0.69711 -0.09875 18.63878 -31.83324 1.84537 20.626 6.84105 -4.69406 8.98283 4.33083 -2.11994 5.69047 -32.70588 -10.79405 32.94294 80.89896 -9.24882 -2.69981 8.518 10.80847 -25.38844 105.19861 -79.38537 -13.88251 2.3776 126.68942 -16.93049 37.12778 -147.08741 22.28932 33.11563 12.3002 72.34035 20.8831 -27.11102 -139.17571 -18.38323 -1.26335 2.07407
-0.20725 -0.70489 -0.08734 18.69723 -31.6899 3.21893 20.30936 7.02291 -4.43862 9.24621 3.5815 -2.11994 7.7917 -34.80231 -8.92671 31.76763 80.93224 -9.48655 -2.88342 7.33975 9.93545 -25.57405 105.71958 -79.73254 -14.05638 2.52263 126.67454 -15.51241 37.12762 -147.07116 22.28676 33.11408 12.94171 71.72898 21.07227 -27.56294 -139.34036 -18.27046 -1.32691 2.03773
-0.20472 -0.71131 -0.07675 19.1483 -31.31098 4.83703 20.04033 7.17551 -4.10234 9.0542 2.55112 -2.11994 9.51306 -37.09842 -7.16665 30.84327 80.95293 -9.67444 -2.90154 5.82078 8.91085 -25.46082 106.2332 -80.99118 -14.60809 2.85709 126.68342 -14.56503 37.12766 -147.08109 22.2878 33.11578 13.04913 71.06342 21.14906 -27.69289 -139.04449 -18.3024 -1.34798 2.02707
-0.20194 -0.71716 -0.06646 19.7418 -30.84997 6.54239 19.79297 7.31519 -3.75067 8.69975 1.41701 -2.11994 11.13253 -39.45549 -5.4251 29.99365 80.98257 -9.84972 -2.86965 4.20307 7.86578 -25.24184 106.75182 -82.57562 -15.29005 3.25785 126.68086 -13.76645 37.12767 -147.07809 22.28791 33.11596 12.98503 70.39014 21.188 -27.7025 -138.57102 -18.3866 -1.35266 2.02632
-0.1993 -0.7232 -0.05604 20.2708 -30.43376 8.20025 19.53654 7.45936 -3.42421 8.42874 0.33625 -2.11994 12.84381 -41.76184 -3.66144 29.08745 81.0226 -10.03413 -2.87213 2.67069 6.86345 -25.07207 107.26661 -84.00741 -15.90436 3.62556 126.68036 -12.87888 37.12765 -147.07763 22.28768 33.11592 13.00527 69.74742 21.24781 -27.77547 -138.17646 -18.44562 -1.36458 2.02118
-0.19652 -0.72956 -0.04563 20.79551 -29.98494 9.89545 19.27943 7.61054 -3.01942 8.11248 -0.77495 -2.11994 14.38157 -44.1758 -1.92158 28.26936 81.00083 -10.20428 -2.82765 0.94704 5.72328 -24.89407 107.79388 -85.46887 -16.55612 4.00794 126.68144 -12.0836 37.12767 -147.07879 22.28798 33.11651 13.00923 68.97748 21.28754 -27.80153 -137.78945 -18.50982 -1.37755 2.01547
-0.19398 -0.73511 -0.03525 21.36582 -29.58459 11.53118 19.02774 7.74239 -2.77514 7.85492 -1.84569 -2.11994 16.23668 -46.3725 -0.16788 27.29409 81.1113 -10.40219 -2.86719 -0.38421 4.86475 -24.71266 108.29408 -86.93377 -17.15867 4.37289 126.68077 -11.12648 37.12766 -147.07805 22.28794 33.11658 13.00219 68.47953 21.36493 -27.90309 -137.34125 -18.57678 -1.38399 2.01356
-0.19206 -0.73857 -0.02493 22.00822 -29.34236 12.9911 18.78725 7.83896 -2.97244 7.78453 -2.78037 -2.11994 19.14912 -47.99591 1.85015 25.79572 81.56799 -10.66454 -3.16357 -0.72359 4.77962 -24.50685 108.71835 -88.4312 -17.61181 4.6951 126.68098 -9.7408 37.12766 -147.07829 22.28798 33.11672 13.00731 68.6874 21.5174 -28.21139 -136.80613 -18.63003 -1.38112 2.01702
-0.19039 -0.74123 -0.01461 22.69543 -29.15119 14.3858 18.55065 7.91382 -3.33293 7.78245 -3.67014 -2.11994 22.35384 -49.38823 3.83704 24.15031 82.15813 -10.95657 -3.54327 -0.64023 4.97899 -24.30839 109.11445 -89.9028 -18.00773 4.99369 126.68101 -8.17984 37.12766 -147.07831 22.28798 33.11669 13.00565 69.17922 21.71594 -28.60563 -136.20755 -18.6869 -1.37147 2.0244
-0.18866 -0.74425 -0.00424 23.37468 -28.93405 15.80356 18.31117 7.98877 -3.62241 7.7586 -4.57898 -2.11994 25.32302 -50.86034 5.69415 22.61821 82.70107 -11.24656 -3.87704 -0.67495 5.05461 -24.13389 109.52245 -91.31707 -18.41749 5.2885 126.68093 -6.6604 37.12766 -147.07823 22.2879 33.11644 13.00521 69.57331 21.91916 -28.98339 -135.615 -18.74636 -1.36175 2.03185
-0.18672 -0.74728 0.00593 24.0062 -28.72557 17.25244 18.07799 8.10427 -3.89809 7.68808 -5.49647 -2.11994 28.72613 -52.44811 8.16866 20.89075 83.19727 -11.49334 -4.24511 -1.03184 5.10942 -23.84232 109.93414 -93.02906 -18.88218 5.64569 126.68099 -5.29667 37.12767 -147.07828 22.28813 33.11724 13.00683 69.83514 22.01467 -29.26591 -135.11803 -18.7854 -1.36446 2.03212
-0.18528 -0.75009 0.0165 24.74633 -28.51244 18.61956 17.83131 8.13066 -4.2414 7.73537 -6.3848 -2.11994 31.29139 -53.73066 9.33729 19.53642 83.81022 -11.83041 -4.55967 -0.60851 5.27132 -23.79538 110.33188 -94.11717 -19.21843 5.86801 126.68096 -3.57817 37.12766 -147.07826 22.28776 33.11595 13.00475 70.43957 22.34374 -29.7633 -134.40229 -18.87259 -1.34028 2.04779
-0.18504 -0.75247 0.0282 25.77159 -28.27193 19.77817 17.55461 7.91379 -4.73376 8.07199 -7.19503 -2.11994 31.51214 -54.30029 7.02354 19.23365 84.82373 -12.4738 -4.72927 1.80456 5.6943 -24.44235 110.69177 -93.43281 -19.20737 5.70996 126.68088 -0.80967 37.12758 -147.07826 22.2855 33.10827 12.9945 71.92434 23.32499 -30.88109 -133.15795 -19.03768 -1.23949 2.10807
